<svg width="67" height="67" viewBox="0 0 67 67" fill="none" xmlns="http://www.w3.org/2000/svg">
<g clip-path="url(#clip0_638_236)">
<path fill-rule="evenodd" clip-rule="evenodd" d="M47.1606 64.4579V6.90625H13.8594V64.4579H47.1606Z" fill="#0E6F9C" stroke="white" stroke-width="1.22398" stroke-linecap="round"/>
<path fill-rule="evenodd" clip-rule="evenodd" d="M13.8594 6.90782L20.1033 1.76953H52.3637L47.1606 6.90782H13.8594Z" fill="#0E6F9C" stroke="white" stroke-width="1.22398" stroke-linecap="round"/>
<path fill-rule="evenodd" clip-rule="evenodd" d="M47.1641 64.4608L52.3671 58.2946V1.76953L47.1641 6.90782V64.4608Z" fill="#0E6F9C" stroke="white" stroke-width="1.22398" stroke-linecap="round"/>
<path d="M13.8594 29.5156H47.1606" stroke="white" stroke-width="1.22398" stroke-linecap="square"/>
<path d="M13.8594 60.8594H47.1606" stroke="white" stroke-width="0.611214" stroke-linecap="square"/>
<path fill-rule="evenodd" clip-rule="evenodd" d="M32.0714 17.1857V11.0195H16.4609V17.1857H32.0714Z" fill="#0E6F9C" stroke="white" stroke-width="1.22398" stroke-linecap="round"/>
<path d="M18.0234 14.1055H30.5112" stroke="white" stroke-width="1.22398" stroke-linecap="square"/>
<path d="M30.513 53.5555C29.3489 53.5654 28.1944 53.3437 27.1168 52.9032C26.0392 52.4628 25.06 51.8124 24.2362 50.9898C23.4123 50.1673 22.7603 49.1892 22.3181 48.1123C21.8759 47.0354 21.6523 45.8813 21.6604 44.7172C21.6684 43.5531 21.908 42.4022 22.365 41.3315C22.8221 40.2608 23.4876 39.2918 24.3227 38.4808C25.1579 37.6697 26.146 37.0329 27.2296 36.6074C28.3132 36.1819 29.4706 35.9762 30.6344 36.0022C32.9471 36.0408 35.1511 36.9907 36.7672 38.6455C38.3834 40.3002 39.281 42.526 39.265 44.839C39.249 47.1519 38.3207 49.3651 36.6818 50.9973C35.0429 52.6295 32.826 53.5489 30.513 53.5555ZM29.1157 45.2947C29.1786 45.3577 29.1786 45.3577 29.2371 45.3577C30.513 46.3882 31.7883 47.3577 33.0032 48.3927C33.2514 48.6139 33.5152 48.8168 33.7928 48.9998C33.8802 49.0605 33.9816 49.0978 34.0875 49.1081C34.1934 49.1184 34.3002 49.1014 34.3976 49.0588C34.4951 49.0161 34.58 48.9492 34.6443 48.8645C34.7086 48.7797 34.7501 48.6799 34.7648 48.5745C34.7739 48.4299 34.7524 48.285 34.7019 48.1492L32.3375 42.5007C31.9733 41.6501 31.6084 40.7391 31.2441 39.8891C31.2179 39.8031 31.171 39.7249 31.1075 39.6614C31.0439 39.5979 30.9658 39.551 30.8798 39.5248C30.5155 39.4034 30.2727 39.5877 30.0902 39.9501C28.8149 42.9266 27.6 45.9635 26.3241 48.94C26.3241 49.003 26.2612 49.0615 26.2612 49.1225H27.4761C27.5975 49.1225 27.5975 49.0596 27.6585 49.0011C27.9014 48.4543 28.0839 47.8472 28.3267 47.3024C28.5527 46.6192 28.8161 45.949 29.1157 45.2947Z" fill="black"/>
<path d="M29.1123 45.2948C28.8694 45.963 28.5655 46.6311 28.3227 47.2993C28.0798 47.846 27.837 48.4531 27.6545 48.998C27.6308 49.0214 27.602 49.0393 27.5704 49.0502C27.5389 49.0611 27.5053 49.0647 27.4721 49.0609H26.2578C26.2578 48.998 26.3207 48.9395 26.3207 48.8784C27.596 45.9019 28.8109 42.865 30.0868 39.8885C30.2693 39.5242 30.5121 39.3418 30.8764 39.4632C30.9624 39.4894 31.0405 39.5363 31.1041 39.5998C31.1676 39.6633 31.2145 39.7415 31.2407 39.8275C31.605 40.6781 31.9699 41.5891 32.3341 42.4391L34.7029 48.0882C34.7507 48.2664 34.7719 48.4506 34.7658 48.635C34.7511 48.7403 34.7096 48.8401 34.6453 48.9249C34.581 49.0097 34.4961 49.0766 34.3986 49.1192C34.3012 49.1619 34.1944 49.1789 34.0885 49.1685C33.9826 49.1582 33.8812 49.1209 33.7938 49.0603C33.5195 48.8727 33.2559 48.67 33.0042 48.4531C31.7289 47.4207 30.453 46.4487 29.2381 45.4162C29.1733 45.2948 29.1733 45.2948 29.1123 45.2948ZM30.6914 41.3469C30.3272 42.3189 29.9622 43.2299 29.5376 44.1409C29.4747 44.2039 29.5376 44.2624 29.6005 44.3234C30.5096 45.052 31.4206 45.722 32.3341 46.4493C32.5166 46.5707 32.6984 46.7532 32.8809 46.8746C32.1498 45.052 31.4206 43.2299 30.6921 41.3469H30.6914Z" fill="white"/>
<path d="M30.6937 41.3477C31.4229 43.2307 32.2125 45.0527 32.941 46.8754C32.7586 46.7539 32.5767 46.5715 32.3943 46.4501C31.4833 45.7209 30.5698 45.0527 29.6613 44.3242C29.5983 44.2613 29.5398 44.2613 29.5983 44.1417C29.9041 43.2307 30.2684 42.3197 30.6937 41.3477Z" fill="black"/>
</g>
<defs>
<clipPath id="clip0_638_236">
<rect width="66.23" height="66.23" fill="white"/>
</clipPath>
</defs>
</svg>
