<svg width="67" height="67" viewBox="0 0 67 67" fill="none" xmlns="http://www.w3.org/2000/svg">
<g clip-path="url(#clip0_612_65)">
<path fill-rule="evenodd" clip-rule="evenodd" d="M18.7734 65.895V11.6055H35.1635V65.895H18.7734Z" fill="#036C9B" stroke="white" stroke-width="1.40839" stroke-linecap="round"/>
<path fill-rule="evenodd" clip-rule="evenodd" d="M35.1635 11.604H18.7734L33.6266 0.335938H47.4544L35.1622 11.604H35.1635Z" fill="#036C9B" stroke="white" stroke-width="1.40839" stroke-linecap="round"/>
<path fill-rule="evenodd" clip-rule="evenodd" d="M47.4563 0.335938V52.0658L35.1641 65.8949V11.604L47.4563 0.335938Z" fill="#036C9B" stroke="white" stroke-width="1.40839" stroke-linecap="round"/>
<path d="M43.8672 12.1173V3.41016" stroke="white" stroke-width="1.40839" stroke-linecap="square"/>
<path d="M43.8672 30.0391V21.332" stroke="white" stroke-width="1.40839" stroke-linecap="square"/>
<path d="M43.8672 47.4532V38.7461" stroke="white" stroke-width="1.40839" stroke-linecap="square"/>
<path d="M47.4563 43.3594L35.1641 57.1884" stroke="white" stroke-width="1.40839" stroke-linecap="square"/>
<path d="M47.4563 34.6523L35.1641 47.9687" stroke="white" stroke-width="1.40839" stroke-linecap="square"/>
<path d="M47.4563 25.9492L35.1641 38.7529" stroke="white" stroke-width="1.40839" stroke-linecap="square"/>
<path d="M47.4563 17.2383L35.1641 30.0432" stroke="white" stroke-width="1.40839" stroke-linecap="square"/>
<path d="M47.4563 9.04297L35.1641 20.8225" stroke="white" stroke-width="1.40839" stroke-linecap="square"/>
<path d="M35.1641 11.604L47.4563 0.335938" stroke="white" stroke-width="1.40839" stroke-linecap="square"/>
<path d="M35.1635 56.6758H18.7734" stroke="white" stroke-width="1.40839" stroke-linecap="square"/>
<path d="M35.1635 47.9688H18.7734" stroke="white" stroke-width="1.40839" stroke-linecap="square"/>
<path d="M35.1635 38.7461H18.7734" stroke="white" stroke-width="1.40839" stroke-linecap="square"/>
<path d="M35.1635 29.5312H18.7734" stroke="white" stroke-width="1.40839" stroke-linecap="square"/>
<path d="M35.1635 20.8203H18.7734" stroke="white" stroke-width="1.40839" stroke-linecap="square"/>
<path d="M39.7734 61.2849V52.0664" stroke="white" stroke-width="1.40839" stroke-linecap="square"/>
<path d="M39.7734 43.3594V34.6523" stroke="white" stroke-width="1.40839" stroke-linecap="square"/>
<path d="M39.7734 25.4337V16.7266" stroke="white" stroke-width="1.40839" stroke-linecap="square"/>
</g>
<defs>
<clipPath id="clip0_612_65">
<rect width="66.23" height="66.23" fill="white"/>
</clipPath>
</defs>
</svg>
