<svg width="67" height="67" viewBox="0 0 67 67" fill="none" xmlns="http://www.w3.org/2000/svg">
<g clip-path="url(#clip0_638_94)">
<path fill-rule="evenodd" clip-rule="evenodd" d="M47.1606 64.4579V6.90625H13.8594V64.4579H47.1606Z" fill="#0E6F9C" stroke="white" stroke-width="1.22398" stroke-linecap="round"/>
<path fill-rule="evenodd" clip-rule="evenodd" d="M13.8594 6.90782L20.1033 1.76953H52.3637L47.1606 6.90782H13.8594Z" fill="#0E6F9C" stroke="white" stroke-width="1.22398" stroke-linecap="round"/>
<path fill-rule="evenodd" clip-rule="evenodd" d="M47.1641 64.4608L52.3671 58.2946V1.76953L47.1641 6.90782V64.4608Z" fill="#0E6F9C" stroke="white" stroke-width="1.22398" stroke-linecap="round"/>
<path d="M13.8594 29.5156H47.1606" stroke="white" stroke-width="1.22398" stroke-linecap="square"/>
<path d="M13.8594 60.8594H47.1606" stroke="white" stroke-width="0.611214" stroke-linecap="square"/>
<path fill-rule="evenodd" clip-rule="evenodd" d="M32.0714 17.1857V11.0195H16.4609V17.1857H32.0714Z" fill="#0E6F9C" stroke="white" stroke-width="1.22398" stroke-linecap="round"/>
<path d="M18.0234 14.1055H30.5112" stroke="white" stroke-width="1.22398" stroke-linecap="square"/>
<rect x="21.7812" y="36.5977" width="17.457" height="17.4562" rx="2" fill="white"/>
<path d="M24.8229 45.6567V45.6464V44.0674H25.1692V45.7782C25.1853 45.9161 25.1735 46.0558 25.1344 46.189C25.0953 46.3222 25.0298 46.4462 24.9418 46.5535C24.7782 46.6946 24.5686 46.7709 24.3526 46.768L24.3164 46.5096C24.4557 46.5097 24.5902 46.4581 24.6937 46.3649C24.7868 46.2563 24.8229 46.109 24.8229 45.6567ZM27.4056 45.4529C27.4056 45.6467 27.4056 45.8199 27.4211 45.9698H27.1135L27.0929 45.6622C27.0285 45.771 26.9365 45.8609 26.8262 45.9226C26.7159 45.9844 26.5913 46.0158 26.4649 46.0137C26.1651 46.0137 25.8084 45.8509 25.8084 45.1867V44.0832H26.1547V45.1169C26.1547 45.4762 26.2659 45.7165 26.5786 45.7165C26.6429 45.7172 26.7067 45.705 26.7663 45.6807C26.8259 45.6564 26.88 45.6205 26.9255 45.575C26.971 45.5295 27.0069 45.4754 27.0313 45.4158C27.0555 45.3562 27.0677 45.2924 27.067 45.2281V44.0703H27.4133V45.4426L27.4056 45.4529ZM28.062 44.698C28.062 44.4577 28.062 44.2613 28.0465 44.083H28.3566L28.3721 44.406C28.4412 44.2893 28.5407 44.1935 28.6599 44.1289C28.7792 44.0643 28.9137 44.0332 29.0492 44.039C29.5092 44.039 29.8555 44.4241 29.8555 44.9978C29.8555 45.6749 29.4395 46.0109 28.9898 46.0109C28.8747 46.016 28.7602 45.9914 28.6574 45.9393C28.5547 45.8872 28.4671 45.8095 28.4031 45.7137V46.7474H28.062V44.7058V44.698ZM28.4031 45.202C28.4041 45.2489 28.4093 45.2956 28.4186 45.3415C28.448 45.4563 28.5147 45.558 28.6083 45.6305C28.7019 45.7031 28.8171 45.7424 28.9355 45.7421C29.2999 45.7421 29.5144 45.4449 29.5144 45.0133C29.5144 44.636 29.3128 44.313 28.9484 44.313C28.8042 44.3248 28.6693 44.3888 28.5689 44.493C28.4685 44.5972 28.4096 44.7344 28.4031 44.8789V45.202ZM30.4725 44.0812L30.8886 45.1951C30.9326 45.3192 30.9791 45.469 31.0101 45.5802C31.0463 45.4665 31.085 45.3217 31.1316 45.1874L31.5089 44.0812H31.8733L31.3564 45.4251C31.098 46.0712 30.9403 46.4046 30.7026 46.6062C30.5828 46.7155 30.4368 46.7921 30.2787 46.8284L30.1934 46.539C30.304 46.5026 30.4066 46.4456 30.4958 46.371C30.6219 46.2682 30.7219 46.1372 30.7878 45.9885C30.8019 45.9627 30.8116 45.9348 30.8163 45.9058C30.8133 45.8746 30.8055 45.8441 30.793 45.8153L30.0901 44.0761H30.4674L30.4725 44.0812ZM32.7926 43.5391V44.0818H33.2888V44.3402H32.7926V45.3584C32.7926 45.591 32.8598 45.7254 33.051 45.7254C33.119 45.7265 33.1867 45.7187 33.2526 45.7022L33.2681 45.9606C33.1693 45.9948 33.0651 46.0106 32.9606 46.0071C32.8914 46.0114 32.8221 46.0008 32.7574 45.9758C32.6927 45.9508 32.6342 45.9121 32.5859 45.8624C32.4806 45.7216 32.4326 45.5461 32.4515 45.3714V44.3376H32.1569V44.0792H32.4566V43.6192L32.7926 43.5391ZM33.9267 45.086C33.9197 45.1736 33.9318 45.2617 33.9622 45.3442C33.9926 45.4268 34.0405 45.5017 34.1027 45.5639C34.1649 45.626 34.2398 45.674 34.3223 45.7043C34.4048 45.7347 34.4929 45.7468 34.5806 45.7398C34.7579 45.7438 34.934 45.7103 35.0974 45.6416L35.1569 45.9C34.9563 45.9827 34.7406 46.0223 34.5237 46.0163C34.3973 46.025 34.2705 46.0062 34.152 45.9612C34.0335 45.9163 33.9262 45.8462 33.8373 45.7559C33.7484 45.6656 33.6802 45.5571 33.6372 45.4379C33.5942 45.3186 33.5775 45.1916 33.5882 45.0653C33.5882 44.4967 33.9267 44.0471 34.4798 44.0471C35.1 44.0471 35.2551 44.5898 35.2551 44.9361C35.2584 44.9894 35.2584 45.0429 35.2551 45.0963H33.919L33.9267 45.086ZM34.9398 44.8275C34.9498 44.7584 34.9448 44.688 34.9253 44.621C34.9057 44.554 34.872 44.4919 34.8265 44.439C34.7809 44.3861 34.7246 44.3436 34.6612 44.3143C34.5978 44.285 34.5289 44.2697 34.4591 44.2693C34.3171 44.2796 34.1841 44.3425 34.0861 44.4458C33.9881 44.549 33.9322 44.6852 33.9293 44.8275H34.9398ZM35.7805 44.6689C35.7805 44.4467 35.7805 44.2554 35.765 44.0797H36.0752V44.4492H36.0907C36.1232 44.3352 36.1905 44.2341 36.2831 44.16C36.3757 44.0859 36.4891 44.0425 36.6075 44.0357C36.6401 44.0315 36.6731 44.0315 36.7057 44.0357V44.3588C36.6662 44.3542 36.6263 44.3542 36.5868 44.3588C36.4695 44.3633 36.3579 44.4104 36.2728 44.4913C36.1876 44.5721 36.1348 44.6812 36.1243 44.7981C36.1146 44.851 36.1094 44.9046 36.1087 44.9584V45.9637H35.7676V44.6715L35.7805 44.6689Z" fill="#4E4E4E"/>
<path d="M35.6328 38.8893C35.6434 39.0628 35.6021 39.2356 35.5142 39.3856C35.4262 39.5356 35.2956 39.6561 35.139 39.7316C34.9824 39.8071 34.8068 39.8343 34.6347 39.8097C34.4625 39.7851 34.3016 39.7098 34.1724 39.5934C34.0432 39.477 33.9516 39.3248 33.9092 39.1562C33.8668 38.9875 33.8756 38.8101 33.9344 38.6465C33.9933 38.4828 34.0994 38.3404 34.2395 38.2373C34.3795 38.1343 34.5471 38.0752 34.7208 38.0677C34.8347 38.0614 34.9487 38.0778 35.0563 38.1157C35.1639 38.1537 35.2629 38.2125 35.3476 38.2888C35.4324 38.3652 35.5012 38.4575 35.5501 38.5606C35.5991 38.6636 35.6272 38.7753 35.6328 38.8893Z" fill="#767677"/>
<path d="M30.5209 49.0167C28.195 49.0167 26.1507 48.182 25.0938 46.9492C25.5039 48.0582 26.2439 49.0149 27.2142 49.6906C28.1845 50.3663 29.3385 50.7285 30.5209 50.7285C31.7033 50.7285 32.8573 50.3663 33.8276 49.6906C34.7979 49.0149 35.5379 48.0582 35.948 46.9492C34.8936 48.182 32.8571 49.0167 30.5209 49.0167Z" fill="#F37726"/>
<path d="M30.5209 40.997C32.8468 40.997 34.891 41.8318 35.948 43.0645C35.5379 41.9555 34.7979 40.9988 33.8276 40.3231C32.8573 39.6474 31.7033 39.2852 30.5209 39.2852C29.3385 39.2852 28.1845 39.6474 27.2142 40.3231C26.2439 40.9988 25.5039 41.9555 25.0938 43.0645C26.1507 41.8292 28.1846 40.997 30.5209 40.997Z" fill="#F37726"/>
<path d="M27.3143 51.4103C27.3279 51.629 27.2761 51.8468 27.1656 52.0359C27.055 52.2251 26.8906 52.3771 26.6933 52.4724C26.4961 52.5678 26.2749 52.6024 26.058 52.5716C25.841 52.5408 25.6381 52.4462 25.4752 52.2997C25.3122 52.1532 25.1966 51.9616 25.1429 51.7491C25.0893 51.5367 25.1001 51.3131 25.174 51.1068C25.2479 50.9005 25.3816 50.7209 25.5579 50.5909C25.7343 50.4608 25.9453 50.3862 26.1642 50.3766C26.3076 50.3689 26.4511 50.3895 26.5865 50.4374C26.722 50.4852 26.8466 50.5592 26.9534 50.6552C27.0602 50.7512 27.1471 50.8673 27.209 50.9968C27.2709 51.1264 27.3067 51.2669 27.3143 51.4103Z" fill="#9E9E9E"/>
<path d="M25.3601 40.7161C25.2348 40.7196 25.1113 40.6859 25.0051 40.6194C24.8989 40.5528 24.8147 40.4564 24.7632 40.3421C24.7117 40.2279 24.6951 40.1009 24.7155 39.9773C24.736 39.8536 24.7925 39.7388 24.878 39.6471C24.9635 39.5555 25.0743 39.4913 25.1962 39.4624C25.3182 39.4335 25.446 39.4414 25.5635 39.4849C25.681 39.5285 25.783 39.6059 25.8567 39.7072C25.9304 39.8086 25.9724 39.9295 25.9776 40.0548C25.9825 40.2241 25.9204 40.3885 25.8048 40.5124C25.6892 40.6362 25.5294 40.7094 25.3601 40.7161Z" fill="#616262"/>
</g>
<defs>
<clipPath id="clip0_638_94">
<rect width="66.23" height="66.23" fill="white"/>
</clipPath>
</defs>
</svg>
