<svg width="67" height="67" viewBox="0 0 67 67" fill="none" xmlns="http://www.w3.org/2000/svg">
<g clip-path="url(#clip0_622_340)">
<g clip-path="url(#clip1_622_340)">
<path fill-rule="evenodd" clip-rule="evenodd" d="M64.8795 23.6484C64.8795 30.6026 50.5363 36.2531 32.7171 36.2531C14.8979 36.2531 0.554688 30.6026 0.554688 23.6484V41.9025C0.554688 48.8567 14.8979 54.5072 32.7171 54.5072C50.5363 54.5072 64.8795 48.8567 64.8795 41.9025V23.6484Z" fill="#0E6F9C"/>
<path fill-rule="evenodd" clip-rule="evenodd" d="M64.8795 23.6484C64.8795 30.6026 50.5363 36.2531 32.7171 36.2531C14.8979 36.2531 0.554688 30.6026 0.554688 23.6484V41.9025C0.554688 48.8567 14.8979 54.5072 32.7171 54.5072C50.5363 54.5072 64.8795 48.8567 64.8795 41.9025V23.6484Z" stroke="white" stroke-width="1.06511" stroke-linecap="round"/>
<path fill-rule="evenodd" clip-rule="evenodd" d="M32.7171 36.2512C50.5374 36.2512 64.8795 30.6007 64.8795 23.6465C64.8795 16.6924 50.5374 11.043 32.7171 11.043C14.8968 11.043 0.554688 16.6935 0.554688 23.6476C0.554688 30.6018 14.8979 36.2523 32.7171 36.2523V36.2512Z" fill="#0E6F9C"/>
<path fill-rule="evenodd" clip-rule="evenodd" d="M32.7171 36.2512C50.5374 36.2512 64.8795 30.6007 64.8795 23.6465C64.8795 16.6924 50.5374 11.043 32.7171 11.043C14.8968 11.043 0.554688 16.6935 0.554688 23.6476C0.554688 30.6018 14.8979 36.2523 32.7171 36.2523V36.2512Z" stroke="white" stroke-width="1.06511" stroke-linecap="round"/>
<path fill-rule="evenodd" clip-rule="evenodd" d="M25.3299 18.8577L27.9382 22.7697L17.9419 24.9432L20.1154 23.2046L4.90234 20.5963L8.81433 17.5541L23.5925 20.1614L25.3299 18.8577ZM39.6731 28.4191L37.4996 24.5082L46.6272 22.3348L45.3236 24.0733L60.1017 26.6806L56.6247 29.2889L41.4127 26.6806L39.6731 28.4191ZM34.4575 16.6854L44.4538 14.0781L44.8887 17.9901L42.2803 17.5552L37.4996 21.9021L32.7189 21.0334L37.4996 17.1214L34.4575 16.6854ZM30.1117 32.3322L20.5503 34.0708L20.1154 29.2901L23.1575 30.1588L28.3732 25.3781L33.1539 26.2468L27.5033 31.4624L30.1106 32.3322H30.1117Z" fill="white"/>
</g>
</g>
<defs>
<clipPath id="clip0_622_340">
<rect width="66.23" height="66.23" fill="white"/>
</clipPath>
<clipPath id="clip1_622_340">
<rect width="66.23" height="45.2572" fill="white" transform="translate(0 10.4883)"/>
</clipPath>
</defs>
</svg>
