<svg width="67" height="67" viewBox="0 0 67 67" fill="none" xmlns="http://www.w3.org/2000/svg">
<g clip-path="url(#clip0_638_120)">
<g clip-path="url(#clip1_638_120)">
<path fill-rule="evenodd" clip-rule="evenodd" d="M54.9687 24.6127V21.7346C54.9687 15.9783 52.9246 10.6145 49.3473 6.82057C46.0252 2.89583 38.6156 0.410156 33.1218 0.410156C27.628 0.410156 20.2184 2.89583 16.8963 6.82057C13.4466 10.6145 11.2749 15.9783 11.2749 21.7346V24.6127C6.29293 24.6127 4.50391 27.6217 4.50391 31.5464V58.8888C4.50391 62.2902 6.54804 65.8225 10.3812 65.8225H55.8632C60.2066 65.8225 61.7397 62.2902 61.7397 58.8888V31.5464C61.7397 28.0142 60.3342 24.6127 54.9687 24.6127ZM21.368 23.1737C21.368 19.7722 22.5176 15.455 24.4342 13.231C26.3508 11.007 30.4391 9.96036 33.1218 9.82954C35.8045 9.82954 39.8928 11.007 41.8094 13.231C43.726 15.455 44.8756 18.3331 44.8756 21.6038V24.4819H21.368V23.1737ZM25.4563 35.8637L32.8667 28.2758L40.2771 35.8637H35.0392V41.3583H30.5675V35.8637H25.4563ZM11.7859 47.3762V42.9282H19.4514V37.6952L26.6059 45.0214L19.4514 52.3476V47.2454L11.7859 47.3762ZM32.8659 62.1594L25.3279 54.4408H30.5658V49.0769H35.0376V54.4408H40.4038L32.8659 62.1594ZM53.9458 47.3762H46.2803V52.6092L38.9983 45.1522L46.2803 37.6952V42.9282H53.9458V47.3762Z" fill="#88171A"/>
<path d="M10.7768 52.852L11.6134 53.0433V53.0911C11.2549 53.1389 10.8963 52.9954 10.5378 52.9715C10.8007 53.1389 11.0876 53.2345 11.3744 53.3301C10.9202 53.7125 10.5378 53.2106 10.0358 53.5452C10.5139 53.7842 10.49 53.7364 10.5378 54.1906C10.3227 54.2145 9.96413 54.4296 9.89242 54.573C10.2032 54.6447 10.5617 54.573 10.8724 54.7643C10.7768 54.836 10.5378 54.9316 10.4422 55.0033C10.6573 55.0511 10.9202 54.9555 11.0398 55.0272C11.4939 55.4096 12.3305 55.9355 12.5695 56.4614C12.9759 57.3458 12.0437 58.3019 11.1354 58.4453C9.86852 58.7082 9.15143 60.0229 9.60558 61.2419C10.0597 62.4371 11.47 62.963 12.5934 62.3415C14.171 61.3854 13.932 59.76 12.9759 58.8756C12.9281 58.8278 12.8803 58.8278 12.8325 58.8756C12.4978 59.0907 12.1393 59.2819 11.7568 59.4492C12.6173 59.6404 12.7369 60.2858 12.6413 60.74C12.3305 61.8873 10.7768 61.6244 10.6095 60.6444C10.5378 60.1902 10.7768 59.7361 11.1832 59.5448C12.5934 58.9234 13.2627 58.8278 13.6691 57.2263C13.8125 56.3179 13.5974 55.8399 12.9281 55.314C12.6652 55.0511 12.1393 54.8838 11.972 54.4774C11.9481 54.4296 11.9959 54.334 12.0437 54.334C12.2827 54.2862 13.2149 54.2623 13.2149 54.3101C13.3822 54.4774 13.5257 54.2145 13.5974 54.095C13.3583 54.0472 13.0954 54.0711 12.9042 54.0711C12.8803 54.0711 12.8325 54.0233 12.8086 53.9994C12.8325 53.9755 12.8803 53.9516 12.9042 53.9516H13.8842C13.8842 53.7842 13.6691 53.5452 13.4539 53.4974V53.5691C13.2627 53.593 13.0715 53.5452 12.8803 53.4735C12.7847 53.4018 12.713 53.2584 12.6173 53.2106C12.2349 52.9954 11.8286 52.8281 11.3266 52.8281C11.0876 52.8281 10.9202 52.852 10.7768 52.852ZM12.5456 53.5691L12.6173 53.6408L12.5217 53.6886C12.4739 53.7125 12.45 53.6886 12.4261 53.6647C12.3783 53.593 12.5217 53.5452 12.5456 53.5691ZM9.67729 55.8638C8.38654 56.6526 8.45824 58.4692 9.60558 59.1863C9.70119 59.2341 9.749 59.2341 9.79681 59.1624C10.0836 58.8038 10.3466 58.6365 10.6573 58.4453C10.0597 58.3497 9.749 58.0629 9.7729 57.6565C9.67729 56.2223 11.7568 56.3658 11.5417 57.7043C11.4939 57.9433 11.3505 58.1585 11.1593 58.3019C11.8046 58.1585 12.2827 57.7999 12.4739 57.1545C12.5217 56.9633 12.5217 56.7004 12.4261 56.5331C11.709 55.4813 10.6334 55.2662 9.67729 55.8638ZM8.19531 60.5249C8.57776 60.3575 8.98411 60.2858 9.36655 60.2141C9.39046 59.9034 9.48607 59.5926 9.67729 59.3536C8.96021 59.3536 8.36263 59.8317 8.19531 60.5249Z" fill="white"/>
</g>
</g>
<defs>
<clipPath id="clip0_638_120">
<rect width="66.23" height="66.23" fill="white"/>
</clipPath>
<clipPath id="clip1_638_120">
<rect width="58.0535" height="66.23" fill="white" transform="translate(4.08984)"/>
</clipPath>
</defs>
</svg>
