<svg width="67" height="67" viewBox="0 0 67 67" fill="none" xmlns="http://www.w3.org/2000/svg">
<g clip-path="url(#clip0_638_56)">
<path fill-rule="evenodd" clip-rule="evenodd" d="M47.1606 64.4579V6.90625H13.8594V64.4579H47.1606Z" fill="#0E6F9C" stroke="white" stroke-width="1.22398" stroke-linecap="round"/>
<path fill-rule="evenodd" clip-rule="evenodd" d="M13.8594 6.90782L20.1033 1.76953H52.3637L47.1606 6.90782H13.8594Z" fill="#0E6F9C" stroke="white" stroke-width="1.22398" stroke-linecap="round"/>
<path fill-rule="evenodd" clip-rule="evenodd" d="M47.1641 64.4608L52.3671 58.2946V1.76953L47.1641 6.90782V64.4608Z" fill="#0E6F9C" stroke="white" stroke-width="1.22398" stroke-linecap="round"/>
<path d="M13.8594 29.5156H47.1606" stroke="white" stroke-width="1.22398" stroke-linecap="square"/>
<path d="M13.8594 60.8594H47.1606" stroke="white" stroke-width="0.611214" stroke-linecap="square"/>
<path fill-rule="evenodd" clip-rule="evenodd" d="M32.0714 17.1857V11.0195H16.4609V17.1857H32.0714Z" fill="#0E6F9C" stroke="white" stroke-width="1.22398" stroke-linecap="round"/>
<path d="M18.0234 14.1055H30.5112" stroke="white" stroke-width="1.22398" stroke-linecap="square"/>
<g clip-path="url(#clip1_638_56)">
<path d="M15.3828 42H45.6367V49.9245H15.3828V42Z" fill="#D40000"/>
<path d="M16.6798 43.207H21.0545V43.7754L17.5335 48.089H21.1406V48.7162H16.5938V48.1478L20.1148 43.8343H16.6798V43.207ZM24.0993 43.9414L23.0773 46.6836H25.125L24.0993 43.9414ZM23.6736 43.207H24.528L26.6505 48.7162H25.867L25.3605 47.3032H22.8494L22.3422 48.7162H21.5474L23.6736 43.207ZM28.2129 46.085V48.1033H29.4213C29.8266 48.1033 30.127 48.0203 30.3225 47.8542C30.518 47.6882 30.6153 47.4338 30.6153 47.0926C30.6153 46.7485 30.518 46.4941 30.3225 46.3303C30.127 46.1673 29.8266 46.085 29.4213 46.085H28.2129ZM28.2129 43.8192V45.4797H29.3284C29.6968 45.4797 29.9707 45.411 30.1511 45.2751C30.3315 45.1385 30.4213 44.9302 30.4213 44.6502C30.4213 44.3724 30.3308 44.1641 30.1511 44.0267C29.9707 43.8894 29.6968 43.8199 29.3284 43.8199H28.2129V43.8192ZM27.4596 43.207H29.3843C29.9587 43.207 30.4017 43.3248 30.7119 43.561C31.0229 43.7973 31.1776 44.1331 31.1776 44.5687C31.1776 44.9053 31.0984 45.174 30.9391 45.3733C30.7799 45.5725 30.5459 45.6971 30.2379 45.7461C30.6085 45.8246 30.8961 45.9884 31.1014 46.2382C31.3067 46.4881 31.4094 46.7998 31.4094 47.1734C31.4094 47.6655 31.2403 48.0452 30.9021 48.3139C30.564 48.5818 30.0825 48.7162 29.459 48.7162H27.4596V43.207ZM33.371 46.085V48.1033H34.5802C34.9855 48.1033 35.2859 48.0203 35.4807 47.8542C35.6761 47.6882 35.7735 47.4338 35.7735 47.0926C35.7735 46.7485 35.6761 46.4941 35.4807 46.3303C35.2852 46.1673 34.9848 46.085 34.5802 46.085H33.371ZM33.371 43.8192V45.4797H34.4866C34.8549 45.4797 35.1289 45.411 35.3093 45.2751C35.4897 45.1385 35.5795 44.9302 35.5795 44.6502C35.5795 44.3724 35.4897 44.1641 35.3093 44.0267C35.1289 43.8894 34.8549 43.8199 34.4866 43.8199H33.371V43.8192ZM32.6178 43.207H34.5425C35.1168 43.207 35.5599 43.3248 35.8701 43.561C36.1811 43.7973 36.3366 44.1331 36.3366 44.5687C36.3366 44.9053 36.2573 45.174 36.0981 45.3733C35.9388 45.5725 35.7048 45.6971 35.3969 45.7461C35.7675 45.8246 36.055 45.9884 36.2603 46.2382C36.4656 46.4881 36.5683 46.7998 36.5683 47.1734C36.5683 47.6655 36.3992 48.0452 36.0611 48.3139C35.7229 48.5818 35.2414 48.7162 34.6179 48.7162H32.6178V43.207ZM39.9573 43.207H40.786L42.0956 45.1853L43.4179 43.207H44.2188L42.4948 45.7876L44.4331 48.7162H43.6044L42.0789 46.4111L40.5384 48.7162H39.7376L41.6804 45.8088L39.9573 43.207ZM37.7752 43.207H38.5285V48.7162H37.7752V43.207Z" fill="white"/>
</g>
</g>
<defs>
<clipPath id="clip0_638_56">
<rect width="66.23" height="66.23" fill="white"/>
</clipPath>
<clipPath id="clip1_638_56">
<rect width="30.2539" height="7.92652" fill="white" transform="translate(15.3828 42)"/>
</clipPath>
</defs>
</svg>
