<svg width="67" height="67" viewBox="0 0 67 67" fill="none" xmlns="http://www.w3.org/2000/svg">
<g clip-path="url(#clip0_638_329)">
<path d="M33.1146 1.78125C46.9252 1.78125 58.6036 7.48323 58.9987 14.3089C58.6036 21.1339 46.9252 26.8374 33.1146 26.8374C19.3036 26.8374 7.62627 21.1352 7.23047 14.3089C7.62627 7.48323 19.3036 1.78125 33.1146 1.78125Z" fill="black"/>
<path d="M59.0303 51.5893C59.0303 58.5716 47.1606 64.4706 33.1089 64.4706C19.0572 64.4706 7.1875 58.5716 7.1875 51.5893V45.4297C11.6253 50.7582 21.4403 54.3823 33.1089 54.3823C44.7775 54.3823 54.5922 50.7572 59.0303 45.4297V51.5893Z" fill="black"/>
<path d="M59.0303 38.9588C59.0303 45.9408 47.1606 51.84 33.1089 51.84C19.0572 51.84 7.1875 45.9408 7.1875 38.9588V32.543C11.6253 37.8703 21.4403 41.4933 33.1089 41.4933C44.7775 41.4933 54.5922 37.868 59.0303 32.543V38.9588Z" fill="black"/>
<path d="M59.0303 26.0669C59.0303 33.0494 47.1606 38.9479 33.1089 38.9479C19.0572 38.9479 7.1875 33.0492 7.1875 26.0669V20.4297C11.6253 25.7582 21.4403 29.3798 33.1089 29.3798C44.7775 29.3798 54.5922 25.757 59.0303 20.4297V26.0669Z" fill="black"/>
</g>
<defs>
<clipPath id="clip0_638_329">
<rect width="62.6914" height="62.6914" fill="white" transform="translate(1.76953 1.76953)"/>
</clipPath>
</defs>
</svg>
