<svg width="67" height="67" viewBox="0 0 67 67" fill="none" xmlns="http://www.w3.org/2000/svg">
<g clip-path="url(#clip0_638_216)">
<path fill-rule="evenodd" clip-rule="evenodd" d="M47.1606 64.4579V6.90625H13.8594V64.4579H47.1606Z" fill="#0E6F9C" stroke="white" stroke-width="1.22398" stroke-linecap="round"/>
<path fill-rule="evenodd" clip-rule="evenodd" d="M13.8594 6.90782L20.1033 1.76953H52.3637L47.1606 6.90782H13.8594Z" fill="#0E6F9C" stroke="white" stroke-width="1.22398" stroke-linecap="round"/>
<path fill-rule="evenodd" clip-rule="evenodd" d="M47.1641 64.4608L52.3671 58.2946V1.76953L47.1641 6.90782V64.4608Z" fill="#0E6F9C" stroke="white" stroke-width="1.22398" stroke-linecap="round"/>
<path d="M13.8594 29.5156H47.1606" stroke="white" stroke-width="1.22398" stroke-linecap="square"/>
<path d="M13.8594 60.8594H47.1606" stroke="white" stroke-width="0.611214" stroke-linecap="square"/>
<path fill-rule="evenodd" clip-rule="evenodd" d="M32.0714 17.1857V11.0195H16.4609V17.1857H32.0714Z" fill="#0E6F9C" stroke="white" stroke-width="1.22398" stroke-linecap="round"/>
<path d="M18.0234 14.1055H30.5112" stroke="white" stroke-width="1.22398" stroke-linecap="square"/>
<g clip-path="url(#clip1_638_216)">
<rect x="21.7812" y="36.5977" width="17.457" height="17.46" rx="2" fill="white"/>
<path d="M36.4088 44.5127C36.388 44.2457 36.3424 43.9813 36.2729 43.7227C36.0803 42.9964 35.7253 42.3234 35.2346 41.7544C35.1264 41.6147 35.0057 41.4851 34.874 41.3673C35.0691 40.592 34.6327 39.9211 34.6327 39.9211C33.88 39.8758 33.4141 40.1448 33.2338 40.2787C33.2033 40.264 33.1727 40.2492 33.1432 40.2492C33.023 40.2039 32.887 40.1448 32.7521 40.1142C32.6161 40.0699 32.4812 40.0403 32.3452 39.996C32.2103 39.9655 32.0596 39.9359 31.9088 39.9054C31.8793 39.9054 31.8635 39.9054 31.834 39.8906C31.503 38.8631 30.5701 38.4297 30.5701 38.4297C29.5318 39.0858 29.321 40.0098 29.321 40.0098C29.321 40.0098 29.321 40.0246 29.3052 40.0689L29.1249 40.1142C29.0501 40.1438 28.9594 40.1733 28.8846 40.1891C28.8087 40.2186 28.7191 40.2482 28.6432 40.2777C28.4925 40.3526 28.328 40.4275 28.1773 40.5024C28.0265 40.591 27.8758 40.6807 27.7408 40.7703C27.7251 40.7555 27.7113 40.7555 27.7113 40.7555C26.2661 40.2186 24.9865 40.8895 24.9865 40.8895C24.8663 42.4105 25.5578 43.3799 25.7086 43.5591C25.679 43.6478 25.6495 43.7522 25.6189 43.8419C25.5139 44.1938 25.4332 44.5526 25.3776 44.9156C25.3776 44.9747 25.3628 45.0201 25.3628 45.0792C24.0083 45.7057 23.6172 47.0474 23.6172 47.0474C24.7304 48.3152 26.0406 48.4039 26.0406 48.4039C26.2051 48.7024 26.4011 48.9703 26.6119 49.2393C26.7025 49.3437 26.7922 49.4481 26.8976 49.5525C26.6567 50.2416 26.6781 50.9952 26.9577 51.6695C28.2068 51.7139 29.0195 51.1326 29.185 50.9987C29.3052 51.043 29.4411 51.0735 29.5613 51.1031C29.9376 51.2075 30.3297 51.2518 30.7198 51.2814H31.2025C31.7887 52.1168 32.8122 52.2212 32.8122 52.2212C33.549 51.4607 33.5796 50.7002 33.5796 50.5367V50.5219V50.4923V50.4628C33.7303 50.3574 33.88 50.2382 34.016 50.118C34.3034 49.8543 34.5608 49.5596 34.7834 49.2393C34.7982 49.2097 34.8287 49.1802 34.8435 49.1506C35.671 49.1949 36.2581 48.6433 36.2581 48.6433C36.1221 47.7931 35.6256 47.3754 35.5202 47.2858L35.5055 47.271H35.4907C35.4907 47.271 35.4759 47.271 35.4759 47.2563C35.4759 47.2119 35.4907 47.1518 35.4907 47.1075C35.4907 47.0179 35.5055 46.9282 35.5055 46.8238V46.7046V46.5411V46.4662V46.3165L35.4907 46.2426C35.4759 46.1529 35.4611 46.0485 35.4306 45.9589C35.3465 45.5955 35.2041 45.2482 35.009 44.9304C34.8148 44.6193 34.5765 44.3379 34.3017 44.095C34.0341 43.8652 33.7353 43.6745 33.4141 43.5286C33.1038 43.3894 32.7738 43.299 32.4359 43.2607C32.2704 43.2459 32.1049 43.2311 31.9394 43.2311H31.8625H31.699C31.6084 43.2459 31.5325 43.2459 31.4429 43.2607C31.1119 43.3198 30.8104 43.439 30.5248 43.6035C30.2539 43.767 30.0125 43.9611 29.8175 44.1995C29.6249 44.4201 29.4719 44.6724 29.3653 44.9452C29.2626 45.2021 29.2017 45.4738 29.185 45.75V46.1372C29.1998 46.2721 29.2303 46.4061 29.2609 46.5253C29.3357 46.7795 29.4411 47.0031 29.5919 47.1814C29.7268 47.3754 29.9071 47.5242 30.0884 47.6592C30.2686 47.7774 30.4647 47.868 30.6597 47.9271C30.8558 47.9862 31.036 48.002 31.2163 48.002H31.4567C31.4872 48.002 31.503 48.002 31.5177 47.9872C31.5325 47.9872 31.5631 47.9724 31.5778 47.9724C31.6232 47.9567 31.6527 47.9567 31.698 47.9429L31.9246 47.8522C31.9946 47.8217 32.0602 47.782 32.1196 47.734C32.1344 47.7183 32.1492 47.7045 32.165 47.7045C32.1802 47.6937 32.1929 47.6796 32.2021 47.6634C32.2113 47.6471 32.2168 47.629 32.2182 47.6104C32.2196 47.5918 32.2169 47.5731 32.2102 47.5556C32.2036 47.5382 32.1932 47.5224 32.1797 47.5094C32.1344 47.4503 32.0596 47.4355 31.9995 47.4799C31.9847 47.4946 31.9699 47.4946 31.9542 47.5094C31.9088 47.539 31.8487 47.5547 31.7887 47.5685L31.6084 47.6138C31.5788 47.6138 31.5483 47.6286 31.5177 47.6286H31.2321C30.9295 47.5902 30.646 47.4603 30.4194 47.2563C30.2987 47.15 30.1967 47.0241 30.1179 46.8839C30.0382 46.7342 29.9824 46.573 29.9524 46.4061C29.9376 46.3174 29.9376 46.2426 29.9376 46.1529V46.0485V46.019C29.9376 45.9736 29.9524 45.9293 29.9524 45.885C30.0125 45.5264 30.2085 45.1688 30.4942 44.8999C30.5701 44.826 30.6449 44.7659 30.7208 44.7216C30.7957 44.6625 30.8853 44.6171 30.9759 44.5728C31.0666 44.5275 31.1562 44.4979 31.2616 44.4684C31.3591 44.4376 31.4608 44.4223 31.5631 44.4231H31.8793C31.9847 44.4379 32.1049 44.4526 32.2103 44.4684C32.4211 44.5127 32.6309 44.5866 32.827 44.7068C33.218 44.9156 33.549 45.2585 33.7599 45.6614C33.8653 45.8692 33.9401 46.0781 33.9707 46.3017C33.9854 46.3608 33.9854 46.4209 33.9854 46.4662V46.8238C33.9854 46.8829 33.9707 46.943 33.9707 47.0031C33.9707 47.0622 33.9559 47.1213 33.9411 47.1814L33.8958 47.3607C33.8662 47.4799 33.8199 47.5991 33.7746 47.7183C33.6811 47.9506 33.56 48.1708 33.4141 48.3743C32.9608 48.9906 32.2864 49.4072 31.5325 49.5368C31.4123 49.5525 31.2764 49.5663 31.1562 49.5821H30.9612C30.9011 49.5821 30.8252 49.5821 30.7651 49.5673C30.4944 49.5481 30.2267 49.4982 29.9672 49.4186C29.7123 49.3437 29.4654 49.2437 29.2303 49.1201C28.5194 48.7425 27.9376 48.161 27.5596 47.4503C27.4424 47.2158 27.3468 46.9712 27.2739 46.7194C27.199 46.4662 27.1685 46.213 27.1389 45.9589V45.6614V45.5717C27.1389 45.4377 27.1537 45.3176 27.1685 45.1836C27.1833 45.0496 27.2138 44.9156 27.2286 44.7964C27.2581 44.6615 27.2887 44.5423 27.3192 44.4083C27.3913 44.1586 27.4819 43.9146 27.5901 43.6783C27.8009 43.2153 28.0866 42.7986 28.4324 42.4706C28.523 42.381 28.6137 42.3061 28.7033 42.2312C28.7939 42.1573 28.8846 42.0972 28.989 42.0234C29.0875 41.9603 29.188 41.9005 29.2904 41.8441C29.3357 41.8145 29.3958 41.7997 29.4411 41.7692C29.4644 41.7555 29.4897 41.7455 29.516 41.7396C29.5396 41.7258 29.5652 41.7158 29.5919 41.7101C29.6973 41.6648 29.8175 41.6205 29.9229 41.5909C29.9524 41.5761 29.982 41.5761 30.0125 41.5613C30.0421 41.5456 30.0726 41.5456 30.1031 41.5318C30.1632 41.516 30.2233 41.5013 30.2686 41.4865C30.2982 41.4717 30.3287 41.4717 30.3593 41.4717C30.3888 41.4717 30.4184 41.4559 30.4489 41.4559C30.4785 41.4559 30.509 41.4412 30.5395 41.4412L30.5849 41.4264H30.6302C30.6597 41.4264 30.6893 41.4116 30.7198 41.4116C30.7494 41.4116 30.7799 41.3968 30.8252 41.3968C30.8548 41.3968 30.9011 41.3821 30.9306 41.3821H31.6832C31.9098 41.3968 32.1197 41.4116 32.3305 41.4559C32.7521 41.5308 33.158 41.6648 33.5195 41.8441C33.88 42.0234 34.211 42.2312 34.4819 42.4706L34.5273 42.5149L34.5726 42.5593C34.6021 42.5888 34.6327 42.6193 34.678 42.6489L34.7686 42.7385L34.8582 42.8272C34.9794 42.9474 35.0848 43.0814 35.1892 43.2153C35.3853 43.4695 35.5508 43.7227 35.6719 43.9758C35.6857 43.9906 35.6857 44.0054 35.7015 44.0212C35.7163 44.0359 35.7163 44.0507 35.7163 44.0655L35.7616 44.1541L35.8069 44.2448L35.8512 44.3334C35.8966 44.4536 35.9419 44.558 35.9724 44.6615C36.0315 44.826 36.0778 44.9747 36.1074 45.1097C36.1221 45.154 36.1675 45.1984 36.2275 45.1836C36.2414 45.184 36.2552 45.1816 36.2681 45.1765C36.281 45.1714 36.2928 45.1637 36.3026 45.154C36.3125 45.1442 36.3203 45.1325 36.3255 45.1197C36.3307 45.1068 36.3332 45.093 36.333 45.0792C36.4236 44.8555 36.4236 44.692 36.4088 44.5127Z" fill="url(#paint0_linear_638_216)"/>
</g>
</g>
<defs>
<linearGradient id="paint0_linear_638_216" x1="30.0224" y1="55.3164" x2="30.0224" y2="42.7208" gradientUnits="userSpaceOnUse">
<stop stop-color="#FFF200"/>
<stop offset="1" stop-color="#F15A29"/>
</linearGradient>
<clipPath id="clip0_638_216">
<rect width="66.23" height="66.23" fill="white"/>
</clipPath>
<clipPath id="clip1_638_216">
<rect x="21.7812" y="36.5977" width="17.457" height="17.46" rx="2" fill="white"/>
</clipPath>
</defs>
</svg>
