<svg width="67" height="67" viewBox="0 0 67 67" fill="none" xmlns="http://www.w3.org/2000/svg">
<g clip-path="url(#clip0_612_48)">
<path fill-rule="evenodd" clip-rule="evenodd" d="M0.675781 64.5113V8.12109H57.5986V64.5113H0.675781Z" fill="#036C9B" stroke="white" stroke-width="1.06376" stroke-linecap="round"/>
<path fill-rule="evenodd" clip-rule="evenodd" d="M65.0463 57.5986V0.675781L57.5986 8.12347V64.5137L65.0463 57.5986ZM10.7836 0.675781L0.675781 7.59226H57.5986L65.0463 0.675781H10.7836Z" fill="#036C9B"/>
<path d="M65.0463 0.675781V57.5986L57.5986 64.5137V8.12347L65.0463 0.675781ZM65.0463 0.675781L57.5986 7.59226H0.675781L10.7836 0.675781H65.0463Z" stroke="white" stroke-width="1.06376" stroke-linecap="round"/>
<path d="M57.6016 8.12109V64.5113" stroke="white" stroke-width="1.06376" stroke-linecap="square"/>
<path d="M57.5986 8.12109H0.675781" stroke="white" stroke-width="1.06376" stroke-linecap="square"/>
<path d="M57.6016 8.12347L65.0493 0.675781" stroke="white" stroke-width="1.06376" stroke-linecap="square"/>
<path fill-rule="evenodd" clip-rule="evenodd" d="M30.4653 27.8042V15.5689H32.5929L29.4016 11.3125L26.7415 15.5689H28.3378V27.8042H30.4653ZM24.0814 29.9317L15.57 20.8877L17.1663 19.824L11.8461 18.7602L12.9099 24.0804L13.9736 22.484L23.0177 30.9955L24.0814 29.9317ZM20.8901 35.7831H8.65484V33.6556L4.39844 36.3157L8.65484 39.5069V37.3794H20.8901V35.7831ZM23.0177 41.6345L13.9736 50.6785L12.9099 49.0822L11.8461 54.4023L17.1663 53.3386L15.57 51.7422L24.0814 43.2308L23.0177 41.6345ZM28.3378 44.8258V57.061H26.7415L29.4016 61.8487L32.5929 57.061H30.4653V44.8258H28.3378ZM34.7217 43.2294L43.7658 51.7409L42.1694 53.3372L47.4896 54.401L46.4258 49.0808L44.8295 50.6771L36.3181 41.6331L34.7217 43.2294ZM37.913 37.3781H50.1483V39.5056L54.9359 36.3143L50.1483 33.6542V35.7817H37.913V37.3781ZM36.3167 30.9941L44.8282 22.4827L46.4245 24.079L47.4882 18.7588L42.1681 19.8226L43.7644 20.8864L34.7204 29.9304L36.3167 30.9941Z" fill="white"/>
<path fill-rule="evenodd" clip-rule="evenodd" d="M36.8431 46.9634C42.6944 42.707 44.2907 34.7281 40.0343 28.8753C36.3105 23.024 28.3303 21.9602 22.4789 25.684C16.6275 29.9404 15.0312 37.9193 19.2876 43.7721C23.544 49.6248 31.5229 51.2198 36.8431 46.9634Z" fill="white"/>
<path fill-rule="evenodd" clip-rule="evenodd" d="M36.8431 46.9634C42.6944 42.707 44.2907 34.7281 40.0343 28.8753C36.3105 23.024 28.3303 21.9602 22.4789 25.684C16.6275 29.9404 15.0312 37.9193 19.2876 43.7721C23.544 49.6248 31.5229 51.2198 36.8431 46.9634Z" stroke="#036C9B" stroke-width="1.06376" stroke-linecap="round"/>
</g>
<defs>
<clipPath id="clip0_612_48">
<rect width="66.2317" height="66.2317" fill="white"/>
</clipPath>
</defs>
</svg>
