<svg width="67" height="67" viewBox="0 0 67 67" fill="none" xmlns="http://www.w3.org/2000/svg">
<g clip-path="url(#clip0_638_346)">
<path d="M33.1146 1.78125C46.9252 1.78125 58.6036 7.48323 58.9987 14.3089C58.6036 21.1339 46.9252 26.8374 33.1146 26.8374C19.3036 26.8374 7.62627 21.1352 7.23047 14.3089C7.62627 7.48323 19.3036 1.78125 33.1146 1.78125Z" fill="black"/>
<path d="M59.0303 51.5893C59.0303 58.5716 47.1606 64.4706 33.1089 64.4706C19.0572 64.4706 7.1875 58.5716 7.1875 51.5893V45.4297C11.6253 50.7582 21.4403 54.3823 33.1089 54.3823C44.7775 54.3823 54.5922 50.7572 59.0303 45.4297V51.5893Z" fill="black"/>
<path d="M59.0303 38.9588C59.0303 45.9408 47.1606 51.84 33.1089 51.84C19.0572 51.84 7.1875 45.9408 7.1875 38.9588V32.543C11.6253 37.8703 21.4403 41.4933 33.1089 41.4933C44.7775 41.4933 54.5922 37.868 59.0303 32.543V38.9588Z" fill="black"/>
<path d="M59.0303 26.0669C59.0303 33.0494 47.1606 38.9479 33.1089 38.9479C19.0572 38.9479 7.1875 33.0492 7.1875 26.0669V20.4297C11.6253 25.7582 21.4403 29.3798 33.1089 29.3798C44.7775 29.3798 54.5922 25.757 59.0303 20.4297V26.0669Z" fill="black"/>
<g clip-path="url(#clip1_638_346)">
<path d="M40.4634 20.1856V13.4375C40.4634 12.0169 39.8723 11.3069 38.7173 11.3069C37.5638 11.3069 36.9713 12.0169 36.9713 13.4375V20.1856H33.5089V13.4375C33.5089 12.0169 32.9472 11.3069 31.7928 11.3069C30.6386 11.3069 30.0464 12.0169 30.0464 13.4375V20.1856H26.6133V13.0535C26.6133 11.5737 27.1164 10.4779 28.1523 9.7084C29.0401 9.02801 30.2832 8.70312 31.7926 8.70312C33.3614 8.70312 34.486 9.08717 35.2254 9.88659C35.8466 9.08717 37.0016 8.70312 38.6877 8.70312C40.2267 8.70312 41.4405 9.02801 42.3285 9.7084C43.364 10.4779 43.8673 11.5737 43.8673 13.0535V20.2145H40.463V20.1856H40.4634Z" fill="white"/>
<path d="M26.9411 10.4203L26.5859 12.1964C29.8414 13.2912 32.9192 12.2253 34.5472 9.38473C32.1497 7.72777 29.9298 9.41431 26.9411 10.4203Z" fill="white"/>
<path d="M26.939 9.97661C26.8205 10.657 26.7316 11.3078 26.6133 11.9887C29.7206 13.0546 32.769 12.1366 34.3969 9.35468C32.3246 6.95747 30.017 8.94001 26.939 9.97661Z" fill="white"/>
<path d="M30.6393 10.7752C29.2187 10.4792 27.6795 11.2198 26.6142 11.989C25.9335 7.0174 29.0116 7.13521 33.0358 8.37819C32.7698 9.59193 32.3253 11.2198 31.5564 12.1962C31.527 11.5447 31.2311 11.1012 30.6393 10.7752Z" fill="white"/>
<path d="M22.3516 9.97534C27.5601 6.8377 30.4902 6.24623 36.557 5.625C29.5133 11.188 29.3356 9.97534 22.3516 9.97534Z" fill="white"/>
<path d="M36.5585 5.65234L30.9648 9.70669" stroke="white" stroke-width="0.0870069"/>
<path opacity="0.23" d="M29.9003 7.81304C29.9595 8.46455 29.8114 7.19146 29.9003 7.81304Z" fill="white"/>
<path d="M22.3516 9.97414L30.9633 9.70703" stroke="white" stroke-width="0.0870069"/>
<path d="M29.3653 7.87109C27.8855 8.28542 23.0323 9.35091 22.9726 9.97283C22.8248 11.1267 22.9435 12.9617 22.9435 12.9617" stroke="white" stroke-width="0.0870069"/>
<path d="M23.3887 17.3733C22.8557 16.0417 22.2047 14.5615 22.9739 12.7266C23.4773 14.4429 23.3887 15.7452 23.3887 17.3733Z" fill="white"/>
<path d="M29.1204 7.66981C29.2436 7.6263 29.3613 7.64022 29.383 7.70182C29.4049 7.7636 29.3232 7.84904 29.2 7.89254C29.0766 7.93709 28.9591 7.92247 28.9372 7.86052C28.9151 7.79927 28.9971 7.71366 29.1204 7.66981Z" fill="white"/>
</g>
</g>
<defs>
<clipPath id="clip0_638_346">
<rect width="62.6914" height="62.6914" fill="white" transform="translate(1.76953 1.76953)"/>
</clipPath>
<clipPath id="clip1_638_346">
<rect width="22.2738" height="22.2738" fill="white" transform="translate(21.9766 1.78125)"/>
</clipPath>
</defs>
</svg>
