<svg width="67" height="67" viewBox="0 0 67 67" fill="none" xmlns="http://www.w3.org/2000/svg">
<g clip-path="url(#clip0_638_279)">
<path fill-rule="evenodd" clip-rule="evenodd" d="M47.1606 64.4579V6.90625H13.8594V64.4579H47.1606Z" fill="#0E6F9C" stroke="white" stroke-width="1.22398" stroke-linecap="round"/>
<path fill-rule="evenodd" clip-rule="evenodd" d="M13.8594 6.90782L20.1033 1.76953H52.3637L47.1606 6.90782H13.8594Z" fill="#0E6F9C" stroke="white" stroke-width="1.22398" stroke-linecap="round"/>
<path fill-rule="evenodd" clip-rule="evenodd" d="M47.1641 64.4608L52.3671 58.2946V1.76953L47.1641 6.90782V64.4608Z" fill="#0E6F9C" stroke="white" stroke-width="1.22398" stroke-linecap="round"/>
<path d="M13.8594 29.5156H47.1606" stroke="white" stroke-width="1.22398" stroke-linecap="square"/>
<path d="M13.8594 60.8594H47.1606" stroke="white" stroke-width="0.611214" stroke-linecap="square"/>
<path fill-rule="evenodd" clip-rule="evenodd" d="M32.0714 17.1857V11.0195H16.4609V17.1857H32.0714Z" fill="#0E6F9C" stroke="white" stroke-width="1.22398" stroke-linecap="round"/>
<path d="M18.0234 14.1055H30.5112" stroke="white" stroke-width="1.22398" stroke-linecap="square"/>
<rect x="21.7812" y="36.5977" width="17.457" height="17.46" rx="2" fill="white"/>
<g clip-path="url(#clip1_638_279)">
<path d="M35.3033 50.0651V45.6674C35.3033 44.7416 34.9181 44.2789 34.1655 44.2789C33.4137 44.2789 33.0276 44.7416 33.0276 45.6674V50.0651H30.7712V45.6674C30.7712 44.7416 30.4051 44.2789 29.6528 44.2789C28.9006 44.2789 28.5147 44.7416 28.5147 45.6674V50.0651H26.2773V45.4171C26.2773 44.4527 26.6052 43.7386 27.2803 43.2372C27.8589 42.7938 28.669 42.582 29.6527 42.582C30.675 42.582 31.4079 42.8323 31.8898 43.3533C32.2946 42.8323 33.0473 42.582 34.1462 42.582C35.1491 42.582 35.9401 42.7938 36.5188 43.2372C37.1937 43.7386 37.5216 44.4527 37.5216 45.4171V50.0839H35.3031V50.0651H35.3033Z" fill="url(#paint0_radial_638_279)"/>
<path d="M26.4893 43.6996L26.2578 44.8571C28.3794 45.5705 30.3851 44.8759 31.4461 43.0247C29.8837 41.9449 28.437 43.044 26.4893 43.6996Z" fill="#58595B"/>
<path d="M26.4896 43.4112C26.4124 43.8546 26.3545 44.2787 26.2773 44.7225C28.3024 45.4171 30.289 44.8189 31.3499 43.0059C29.9994 41.4437 28.4955 42.7357 26.4896 43.4112Z" fill="url(#paint1_linear_638_279)"/>
<path d="M28.8997 43.931C27.9738 43.7381 26.9708 44.2208 26.2765 44.722C25.8329 41.4821 27.8389 41.5589 30.4615 42.3689C30.2881 43.1599 29.9984 44.2208 29.4973 44.8571C29.4781 44.4325 29.2854 44.1435 28.8997 43.931Z" fill="url(#paint2_linear_638_279)"/>
<path d="M23.5 43.4093C26.8944 41.3645 28.8039 40.9791 32.7576 40.5742C28.1672 44.1996 28.0514 43.4093 23.5 43.4093Z" fill="url(#paint3_linear_638_279)"/>
<path d="M32.7586 40.5938L29.1133 43.2359" stroke="#4A4A4C" stroke-width="0.0567017"/>
<path opacity="0.23" d="M28.4175 42.0016C28.456 42.4262 28.3595 41.5966 28.4175 42.0016Z" fill="#231F20"/>
<path d="M23.5 43.4084L29.1122 43.2344" stroke="#A8ABAD" stroke-width="0.0567017"/>
<path d="M28.0699 42.0391C27.1055 42.3091 23.9427 43.0034 23.9038 43.4087C23.8075 44.1607 23.8849 45.3566 23.8849 45.3566" stroke="#F16922" stroke-width="0.0567017"/>
<path d="M24.176 48.2313C23.8287 47.3636 23.4044 46.399 23.9057 45.2031C24.2338 46.3216 24.176 47.1703 24.176 48.2313Z" fill="#F16922"/>
<path d="M27.9108 41.9071C27.9911 41.8787 28.0678 41.8878 28.0819 41.928C28.0962 41.9682 28.0429 42.0239 27.9626 42.0523C27.8822 42.0813 27.8057 42.0718 27.7914 42.0314C27.777 41.9915 27.8304 41.9357 27.9108 41.9071Z" fill="#6D6E70"/>
</g>
</g>
<defs>
<radialGradient id="paint0_radial_638_279" cx="0" cy="0" r="1" gradientUnits="userSpaceOnUse" gradientTransform="translate(49.9319 46.7654) scale(23.7875 23.7875)">
<stop stop-color="#FAAF40"/>
<stop offset="0.043" stop-color="#F9A538"/>
<stop offset="0.112" stop-color="#F89D31"/>
<stop offset="0.227" stop-color="#F89A2F"/>
<stop offset="0.528" stop-color="#F7922D"/>
<stop offset="1" stop-color="#F37B28"/>
</radialGradient>
<linearGradient id="paint1_linear_638_279" x1="26.2775" y1="43.6348" x2="31.3425" y2="43.6348" gradientUnits="userSpaceOnUse">
<stop stop-color="#929497"/>
<stop offset="0.124" stop-color="#757578"/>
<stop offset="0.279" stop-color="#575658"/>
<stop offset="0.44" stop-color="#403E3F"/>
<stop offset="0.609" stop-color="#302D2E"/>
<stop offset="0.788" stop-color="#262223"/>
<stop offset="1" stop-color="#231F20"/>
</linearGradient>
<linearGradient id="paint2_linear_638_279" x1="27.2479" y1="41.9446" x2="29.3508" y2="44.9478" gradientUnits="userSpaceOnUse">
<stop stop-color="#231F20"/>
<stop offset="1" stop-color="#231F20" stop-opacity="0"/>
</linearGradient>
<linearGradient id="paint3_linear_638_279" x1="23.5" y1="42.0283" x2="32.7576" y2="42.0283" gradientUnits="userSpaceOnUse">
<stop stop-color="#929497"/>
<stop offset="0.124" stop-color="#757578"/>
<stop offset="0.279" stop-color="#575658"/>
<stop offset="0.44" stop-color="#403E3F"/>
<stop offset="0.609" stop-color="#302D2E"/>
<stop offset="0.788" stop-color="#262223"/>
<stop offset="1" stop-color="#231F20"/>
</linearGradient>
<clipPath id="clip0_638_279">
<rect width="66.23" height="66.23" fill="white"/>
</clipPath>
<clipPath id="clip1_638_279">
<rect width="14.5156" height="14.5156" fill="white" transform="translate(23.2539 38.0703)"/>
</clipPath>
</defs>
</svg>
