<svg width="74" height="74" viewBox="0 0 74 74" fill="none" xmlns="http://www.w3.org/2000/svg">
<g clip-path="url(#clip0_605_16)">
<path fill-rule="evenodd" clip-rule="evenodd" d="M62.5285 62.4981V49.3711H0.621094V62.4981H62.5285Z" fill="#0F73A0" stroke="white" stroke-width="1.09403" stroke-linecap="round"/>
<path d="M43.3672 56.4844H59.0898" stroke="white" stroke-width="1.09403" stroke-linecap="square"/>
<path d="M43.3672 55.9336H59.0898" stroke="white" stroke-width="1.09403" stroke-linecap="square"/>
<path fill-rule="evenodd" clip-rule="evenodd" d="M72.8462 49.9188V38.4336L62.5285 49.3725V62.4995L72.8462 49.9188ZM51.7188 72.8893V70.1549L57.1236 61.4041V66.8729L51.7188 72.8893Z" fill="#0F73A0" stroke="white" stroke-width="1.09403" stroke-linecap="round"/>
<path fill-rule="evenodd" clip-rule="evenodd" d="M51.7179 70.1562V72.8906H2.09375V70.1562H51.7179Z" fill="#0F73A0" stroke="white" stroke-width="1.09403" stroke-linecap="round"/>
<path fill-rule="evenodd" clip-rule="evenodd" d="M51.7188 70.1549H2.09469L7.49956 61.4041H57.1237L51.7188 70.1549ZM72.8462 38.4336H10.9388L0.621094 49.3725H62.5285L72.8462 38.4336Z" fill="#0F73A0" stroke="white" stroke-width="1.09403" stroke-linecap="round"/>
<path fill-rule="evenodd" clip-rule="evenodd" d="M54.1767 42.8087V8.35156H11.9219V42.8087H54.1767Z" fill="#0F73A0" stroke="white" stroke-width="1.09403" stroke-linecap="round"/>
<path fill-rule="evenodd" clip-rule="evenodd" d="M15.3555 16.0207C15.3555 12.1922 18.3039 11.6445 18.3039 11.6445H46.8006C50.7319 11.6445 50.7319 16.0207 50.7319 16.0207V35.7104C50.7319 37.8985 47.2926 38.9925 47.2926 38.9925H18.7947C16.3383 38.9925 15.3555 35.7104 15.3555 35.7104V16.0207Z" fill="#0F73A0"/>
<path fill-rule="evenodd" clip-rule="evenodd" d="M15.3555 16.0207C15.3555 12.1922 18.3039 11.6445 18.3039 11.6445H46.8006C50.7319 11.6445 50.7319 16.0207 50.7319 16.0207V35.7104C50.7319 37.8985 47.2926 38.9925 47.2926 38.9925H18.7947C16.3383 38.9925 15.3555 35.7104 15.3555 35.7104V16.0207Z" stroke="white" stroke-width="1.09403" stroke-linecap="round"/>
<path fill-rule="evenodd" clip-rule="evenodd" d="M61.546 0.695312H18.8003L11.9219 8.35214H54.1767L61.546 0.695312Z" fill="#0F73A0" stroke="white" stroke-width="1.09403" stroke-linecap="round"/>
<path fill-rule="evenodd" clip-rule="evenodd" d="M61.545 35.6988V0.695312L54.1758 8.35214V42.8093L61.545 35.6988Z" fill="#0B719F" stroke="white" stroke-width="1.09403" stroke-linecap="round"/>
</g>
<defs>
<clipPath id="clip0_605_16">
<rect width="73.68" height="73.6768" fill="white"/>
</clipPath>
</defs>
</svg>
