<svg width="67" height="67" viewBox="0 0 67 67" fill="none" xmlns="http://www.w3.org/2000/svg">
<g clip-path="url(#clip0_638_170)">
<path fill-rule="evenodd" clip-rule="evenodd" d="M47.1606 64.4579V6.90625H13.8594V64.4579H47.1606Z" fill="#0E6F9C" stroke="white" stroke-width="1.22398" stroke-linecap="round"/>
<path fill-rule="evenodd" clip-rule="evenodd" d="M13.8594 6.90782L20.1033 1.76953H52.3637L47.1606 6.90782H13.8594Z" fill="#0E6F9C" stroke="white" stroke-width="1.22398" stroke-linecap="round"/>
<path fill-rule="evenodd" clip-rule="evenodd" d="M47.1641 64.4608L52.3671 58.2946V1.76953L47.1641 6.90782V64.4608Z" fill="#0E6F9C" stroke="white" stroke-width="1.22398" stroke-linecap="round"/>
<path d="M13.8594 29.5156H47.1606" stroke="white" stroke-width="1.22398" stroke-linecap="square"/>
<path d="M13.8594 60.8594H47.1606" stroke="white" stroke-width="0.611214" stroke-linecap="square"/>
<path fill-rule="evenodd" clip-rule="evenodd" d="M32.0714 17.1857V11.0195H16.4609V17.1857H32.0714Z" fill="#0E6F9C" stroke="white" stroke-width="1.22398" stroke-linecap="round"/>
<path d="M18.0234 14.1055H30.5112" stroke="white" stroke-width="1.22398" stroke-linecap="square"/>
<rect x="21.7812" y="36.5977" width="17.457" height="17.46" rx="2" fill="white"/>
<g clip-path="url(#clip1_638_170)">
<path d="M30.5025 38.957C26.9783 38.957 24.1211 41.8139 24.1211 45.3382C24.1211 48.8624 26.9783 51.7194 30.5025 51.7194C34.0267 51.7194 36.8837 48.8624 36.8837 45.3382C36.8837 41.8139 34.0266 38.957 30.5025 38.957ZM30.5025 50.9001C29.4998 50.9001 28.6868 50.2303 28.6868 49.4043H32.3181C32.3181 50.2302 31.5052 50.9001 30.5025 50.9001ZM33.5013 48.9089H27.5033V47.8213H33.5014V48.9089H33.5013ZM33.4798 47.2615H27.5204C27.5006 47.2386 27.4803 47.2161 27.4612 47.1929C26.8472 46.4474 26.7026 46.0582 26.5622 45.6616C26.5598 45.6485 27.3067 45.8142 27.8363 45.9333C27.8363 45.9333 28.1088 45.9964 28.5072 46.069C28.1247 45.6206 27.8975 45.0506 27.8975 44.4679C27.8975 43.1888 28.8786 42.071 28.5247 41.1675C28.8691 41.1955 29.2376 41.8945 29.2625 42.9874C29.6287 42.4813 29.782 41.5571 29.782 40.9905C29.782 40.4038 30.1686 39.7222 30.5553 39.6989C30.2106 40.267 30.6446 40.7541 31.0304 41.9623C31.1751 42.4161 31.1566 43.1799 31.2683 43.6642C31.3054 42.6582 31.4784 41.1905 32.1165 40.6837C31.835 41.3219 32.1582 42.1204 32.3793 42.5043C32.7359 43.1237 32.9521 43.5929 32.9521 44.4804C32.9521 45.0755 32.7324 45.6357 32.3618 46.0737C32.7832 45.9946 33.0742 45.9233 33.0742 45.9233L34.4427 45.6563C34.4428 45.6562 34.2439 46.474 33.4798 47.2615Z" fill="#DA4E31"/>
</g>
</g>
<defs>
<clipPath id="clip0_638_170">
<rect width="66.23" height="66.23" fill="white"/>
</clipPath>
<clipPath id="clip1_638_170">
<rect width="12.8125" height="12.8125" fill="white" transform="translate(24.1016 38.9219)"/>
</clipPath>
</defs>
</svg>
