<svg width="67" height="67" viewBox="0 0 67 67" fill="none" xmlns="http://www.w3.org/2000/svg">
<g clip-path="url(#clip0_638_191)">
<path fill-rule="evenodd" clip-rule="evenodd" d="M47.1606 64.4579V6.90625H13.8594V64.4579H47.1606Z" fill="#0E6F9C" stroke="white" stroke-width="1.22398" stroke-linecap="round"/>
<path fill-rule="evenodd" clip-rule="evenodd" d="M13.8594 6.90782L20.1033 1.76953H52.3637L47.1606 6.90782H13.8594Z" fill="#0E6F9C" stroke="white" stroke-width="1.22398" stroke-linecap="round"/>
<path fill-rule="evenodd" clip-rule="evenodd" d="M47.1641 64.4608L52.3671 58.2946V1.76953L47.1641 6.90782V64.4608Z" fill="#0E6F9C" stroke="white" stroke-width="1.22398" stroke-linecap="round"/>
<path d="M13.8594 29.5156H47.1606" stroke="white" stroke-width="1.22398" stroke-linecap="square"/>
<path d="M13.8594 60.8594H47.1606" stroke="white" stroke-width="0.611214" stroke-linecap="square"/>
<path fill-rule="evenodd" clip-rule="evenodd" d="M32.0714 17.1857V11.0195H16.4609V17.1857H32.0714Z" fill="#0E6F9C" stroke="white" stroke-width="1.22398" stroke-linecap="round"/>
<path d="M18.0234 14.1055H30.5112" stroke="white" stroke-width="1.22398" stroke-linecap="square"/>
<g clip-path="url(#clip1_638_191)">
<path d="M32.8532 45.8883C33.5283 45.8433 34.1943 45.7331 34.8648 45.7365C35.676 45.7365 36.486 45.8602 37.2971 45.8737C37.4108 45.8655 37.5209 45.8307 37.6186 45.772C37.7164 45.7134 37.7989 45.6326 37.8596 45.5362C38.1375 44.8826 38.358 44.203 38.5718 43.5246C38.6978 43.1241 38.5043 42.9138 38.0903 42.9115C37.4344 42.9115 36.7751 42.8721 36.1248 42.9318C35.9088 42.952 35.631 43.1826 35.5308 43.3885C35.3058 43.8577 35.1809 44.3763 34.9863 44.8623C34.9312 44.9883 34.7804 45.1571 34.6679 45.1638C34.1167 45.1964 33.5609 45.1784 32.9264 45.1784C33.1885 44.3752 33.4191 43.6732 33.6486 42.9711L33.5361 42.8125C33.2886 42.9318 32.8982 42.9914 32.8184 43.1815C32.4674 44.023 32.2052 44.9028 31.8711 45.8872C32.2626 45.8883 32.5596 45.903 32.8532 45.8883ZM37.593 43.6923C37.5818 45.0097 37.1891 45.3314 35.8087 45.1143C35.9235 43.7407 36.3397 43.4133 37.593 43.6923Z" fill="white"/>
<path d="M33.0685 47.0794C33.6851 47.1919 34.2926 47.3539 34.9046 47.4934H34.9147L34.8967 47.4799C35.9216 47.562 36.9465 47.7241 37.9681 47.7049C39.1212 47.6802 40.1484 46.8972 40.3441 45.9375C39.3575 47.121 38.1526 47.6509 36.7294 47.3247C37.5585 47.1503 38.3472 46.7723 38.9558 46.0511C38.7257 46.0766 38.503 46.1481 38.3011 46.2615C37.3133 46.7666 36.3694 47.3989 35.1611 47.1402C34.4118 46.9793 33.6536 46.8499 32.8953 46.7351C30.652 46.3976 28.4188 46.2705 26.2497 47.1492C26.1459 47.1895 26.0346 47.2068 25.9235 47.1998C25.0234 47.148 24.1324 47.0659 23.2357 47.0367C21.4897 46.9804 19.7583 47.0805 18.0898 47.6914C20.5514 47.1413 23.0299 47.2009 25.5848 47.4045L25.1798 47.7758L26.6907 47.256L26.6783 47.2729H26.7098H26.702C28.8024 46.4809 30.9343 46.6845 33.0685 47.0794Z" fill="white"/>
<path d="M22.5901 44.7236C23.048 44.7416 23.5082 44.7236 23.9672 44.7236C23.9863 44.7978 24.0054 44.871 24.0234 44.9486C23.8558 45.024 23.6915 45.15 23.5183 45.1657C23.1441 45.1995 22.7678 45.2021 22.3932 45.1736C21.8982 45.1376 21.7317 45.375 21.7385 45.8137C21.7981 45.843 21.8307 45.8722 21.8634 45.8722C22.3696 45.879 22.8759 45.8857 23.3799 45.8869C24.4779 45.8869 24.4779 45.8869 24.8424 44.8687C25.0675 44.2454 24.9279 44.0339 24.2732 44.0204C23.84 44.0125 23.4058 44.0204 22.9726 44.0204C22.9591 43.945 22.9468 43.8697 22.9333 43.7954C23.0941 43.7358 23.2505 43.6368 23.4148 43.6233C23.7515 43.5911 24.0906 43.5911 24.4273 43.6233C24.9212 43.6784 25.171 43.4962 25.1687 42.9044C24.3609 42.9044 23.5745 42.883 22.7915 42.9213C22.6228 42.9303 22.418 43.1249 22.3122 43.288C22.1829 43.486 22.1356 43.738 22.0625 43.9698C21.896 44.5064 22.0231 44.6999 22.5901 44.7236Z" fill="white"/>
<path d="M29.4647 44.7311C29.8776 44.7311 30.2905 44.7311 30.7023 44.7311L30.7428 44.982C30.5605 45.0506 30.3827 45.162 30.1949 45.1789C29.8408 45.2109 29.4846 45.2109 29.1306 45.1789C28.6569 45.1373 28.4331 45.3274 28.4376 45.8877H30.1465C31.1905 45.8877 31.1905 45.8877 31.5292 44.9201C31.7812 44.199 31.654 44.0201 30.8665 44.0201C30.4671 44.0201 30.0677 44.0201 29.6684 44.0201L29.6245 43.8041C29.782 43.7422 29.9372 43.6398 30.0981 43.6286C30.4725 43.6007 30.8485 43.5988 31.2231 43.623C31.7182 43.6567 31.888 43.416 31.8712 42.8984H30.1285C29.116 42.8984 29.116 42.8984 28.8122 43.8525C28.5917 44.5556 28.711 44.7232 29.4647 44.7311Z" fill="white"/>
<path d="M40.0132 42.8991C39.8152 42.9104 39.5418 43.1242 39.4586 43.3132C39.2141 43.9019 38.9997 44.5027 38.8162 45.1132C38.6474 45.6341 38.7734 45.8276 39.3033 45.8467C39.9018 45.867 40.5026 45.8726 41.1034 45.84C41.2766 45.8299 41.5264 45.7061 41.5928 45.5655C41.802 45.1155 41.9404 44.6429 42.1148 44.1558C40.0661 44.0658 40.3867 44.0433 40.227 44.7723L41.0032 44.8567C40.7254 45.1942 40.3136 45.2437 39.7038 45.0446C39.9772 43.582 39.9851 43.582 41.3914 43.582C41.5037 43.5741 41.6165 43.5741 41.7289 43.582C42.216 43.6507 42.4163 43.4178 42.4152 42.8834C41.5815 42.88 40.7951 42.8496 40.0132 42.8991Z" fill="white"/>
<path d="M25.8319 44.7953C26.2875 44.81 26.7432 44.7953 27.1988 44.7953C27.2123 44.8572 27.2247 44.9191 27.2371 44.981C27.0694 45.0462 26.8996 45.1542 26.7319 45.1689C26.3771 45.2009 26.0202 45.2009 25.6654 45.1689C25.1985 45.1239 24.9544 45.2949 24.9375 45.8675C25.7453 45.8675 26.5283 45.89 27.3079 45.8506C27.4152 45.8331 27.517 45.7912 27.6055 45.7283C27.6941 45.6653 27.767 45.5828 27.8187 45.4872C28.1562 44.6592 28.4341 43.8098 28.7334 42.9705C28.1585 42.759 27.8795 42.9402 27.7276 43.4633C27.6601 43.6962 27.4744 44.0089 27.2776 44.0663C26.9401 44.1653 26.5485 44.0933 26.0985 44.0933C26.2268 43.6669 26.3303 43.3182 26.436 42.9683C25.9005 42.7669 25.5889 42.9177 25.4719 43.4599C25.428 43.6602 25.3425 43.8503 25.2851 44.0483C25.1265 44.594 25.2559 44.7762 25.8319 44.7953Z" fill="white"/>
<path d="M18.8856 45.3248C19.4774 43.6249 19.4774 43.6091 21.2876 43.6249C21.8017 43.6249 22.0042 43.4404 21.975 42.9048C21.1064 42.9048 20.2492 42.8823 19.3941 42.9217C19.1939 42.9307 18.8991 43.1096 18.8316 43.2851C18.4851 44.1075 18.2061 44.9558 17.9023 45.8018C18.664 45.9638 18.664 45.9638 18.8856 45.3248Z" fill="white"/>
<path d="M41.146 46.3083C40.3405 47.6651 39.1052 48.4358 37.5921 48.5888C36.1138 48.7418 34.6085 48.6956 33.1167 48.6641C32.2268 48.6461 31.3391 48.4886 30.4492 48.393C33.2191 48.9409 35.9956 49.4798 38.7958 48.6338C40.0975 48.2411 41.0257 47.3782 41.6084 46.1587L41.5297 45.9922C41.4003 46.0957 41.2259 46.1744 41.146 46.3083Z" fill="white"/>
<path d="M31.881 47.7739C32.8136 47.811 33.7508 47.7469 34.6857 47.7154C34.7982 47.7154 35.0862 47.7964 34.9107 47.4904C32.3359 47.4004 29.7607 47.3112 27.1851 47.2227C27.0276 47.225 26.8704 47.2385 26.7148 47.2632C26.8273 47.3374 26.9399 47.4533 27.0647 47.4623C28.6668 47.5827 30.2789 47.7087 31.881 47.7739Z" fill="white"/>
<path d="M42.1243 41.1997C41.3424 40.7722 40.2443 40.8768 39.5367 41.445C39.0012 41.8781 38.7638 42.426 38.9663 43.0628C39.3038 41.949 39.8933 41.247 41.006 41.2413C42.1186 41.2357 42.7126 41.9501 43.0907 42.939C43.2335 42.2291 42.8386 41.5912 42.1243 41.1997Z" fill="white"/>
</g>
</g>
<defs>
<clipPath id="clip0_638_191">
<rect width="66.23" height="66.23" fill="white"/>
</clipPath>
<clipPath id="clip1_638_191">
<rect width="25.2188" height="8.13962" fill="white" transform="translate(17.9023 40.9375)"/>
</clipPath>
</defs>
</svg>
