<svg width="67" height="67" viewBox="0 0 67 67" fill="none" xmlns="http://www.w3.org/2000/svg">
<g clip-path="url(#clip0_622_380)">
<g clip-path="url(#clip1_622_380)">
<path fill-rule="evenodd" clip-rule="evenodd" d="M54.9687 24.6127V21.7346C54.9687 15.9783 52.9246 10.6145 49.3473 6.82057C46.0252 2.89583 38.6156 0.410156 33.1218 0.410156C27.628 0.410156 20.2184 2.89583 16.8963 6.82057C13.4466 10.6145 11.2749 15.9783 11.2749 21.7346V24.6127C6.29293 24.6127 4.50391 27.6217 4.50391 31.5464V58.8888C4.50391 62.2902 6.54804 65.8225 10.3812 65.8225H55.8632C60.2066 65.8225 61.7397 62.2902 61.7397 58.8888V31.5464C61.7397 28.0142 60.3342 24.6127 54.9687 24.6127ZM21.368 23.1737C21.368 19.7722 22.5176 15.455 24.4342 13.231C26.3508 11.007 30.4391 9.96036 33.1218 9.82954C35.8045 9.82954 39.8928 11.007 41.8094 13.231C43.726 15.455 44.8756 18.3331 44.8756 21.6038V24.4819H21.368V23.1737ZM25.4563 35.8637L32.8667 28.2758L40.2771 35.8637H35.0392V41.3583H30.5675V35.8637H25.4563ZM11.7859 47.3762V42.9282H19.4514V37.6952L26.6059 45.0214L19.4514 52.3476V47.2454L11.7859 47.3762ZM32.8659 62.1594L25.3279 54.4408H30.5658V49.0769H35.0376V54.4408H40.4038L32.8659 62.1594ZM53.9458 47.3762H46.2803V52.6092L38.9983 45.1522L46.2803 37.6952V42.9282H53.9458V47.3762Z" fill="#126D99"/>
</g>
</g>
<defs>
<clipPath id="clip0_622_380">
<rect width="66.23" height="66.23" fill="white"/>
</clipPath>
<clipPath id="clip1_622_380">
<rect width="58.0535" height="66.23" fill="white" transform="translate(4.08984)"/>
</clipPath>
</defs>
</svg>
