<svg width="67" height="67" viewBox="0 0 67 67" fill="none" xmlns="http://www.w3.org/2000/svg">
<g clip-path="url(#clip0_622_300)">
<g clip-path="url(#clip1_622_300)">
<path fill-rule="evenodd" clip-rule="evenodd" d="M0.429688 30.9619L19.7215 15.0547H65.0736L48.8283 30.9619H0.429688Z" fill="#036E9D" stroke="white" stroke-width="0.859599" stroke-linecap="round"/>
<path fill-rule="evenodd" clip-rule="evenodd" d="M48.8281 50.9307L65.0734 34.6854V15.0547L48.8281 30.9619V50.9307Z" fill="#036E9D" stroke="white" stroke-width="0.859599" stroke-linecap="round"/>
<path fill-rule="evenodd" clip-rule="evenodd" d="M48.8283 50.9258V30.957H0.429688V50.9258H48.8283Z" fill="#036E9D" stroke="white" stroke-width="0.859599" stroke-linecap="round"/>
<path fill-rule="evenodd" clip-rule="evenodd" d="M14.9806 25.2082L21.0729 24.5312L20.0571 27.2389L18.3653 26.2231L11.596 28.9308L10.2422 28.5919L16.6725 25.8842L14.9806 25.2073V25.2082ZM40.7028 25.2082L35.6263 24.5312L35.9644 27.2389L37.6571 26.2231L42.3956 28.5919L43.7494 28.253L39.3498 25.8842L40.7037 25.2073L40.7028 25.2082Z" fill="white"/>
<path d="M46.1162 41.4575C46.1162 41.4575 42.7316 49.9186 39.0089 41.4575C34.9474 33.3353 31.9017 41.4575 31.9017 41.4575C31.9017 41.4575 28.5171 49.9186 24.7944 41.4575C21.0718 33.3353 17.6872 41.4575 17.6872 41.4575C17.6872 41.4575 14.6414 49.9186 10.5799 41.4575C6.85727 33.3353 3.47266 41.4575 3.47266 41.4575" stroke="white" stroke-width="0.859599" stroke-linecap="round"/>
<path d="M3.46875 41.4575C3.46875 41.4575 6.85336 49.9186 10.576 41.4575C14.6375 33.3353 17.6833 41.4575 17.6833 41.4575C17.6833 41.4575 21.0679 49.9186 24.7905 41.4575C28.852 33.3353 31.8978 41.4575 31.8978 41.4575C31.8978 41.4575 34.9435 49.9186 39.005 41.4575C42.7277 33.3353 46.1123 41.4575 46.1123 41.4575" stroke="white" stroke-width="1.7192" stroke-linecap="round"/>
<path d="M46.792 41.4575C46.792 41.4575 43.7462 49.9186 39.6847 41.4575C35.9621 33.3353 32.5774 41.4575 32.5774 41.4575C32.5774 41.4575 29.5317 49.9186 25.4702 41.4575C21.7476 33.3353 18.3629 41.4575 18.3629 41.4575C18.3629 41.4575 15.3172 49.9186 11.2557 41.4575C7.53305 33.3353 4.14844 41.4575 4.14844 41.4575" stroke="black" stroke-width="0.859599" stroke-linecap="round"/>
<path d="M4.14844 41.4575C4.14844 41.4575 7.53305 49.9186 11.2557 41.4575C15.3172 33.3353 18.3629 41.4575 18.3629 41.4575C18.3629 41.4575 21.7476 49.9186 25.4702 41.4575C29.5317 33.3353 32.5774 41.4575 32.5774 41.4575C32.5774 41.4575 35.9621 49.9186 39.6847 41.4575C43.7462 33.3353 46.792 41.4575 46.792 41.4575" stroke="black" stroke-width="1.7192" stroke-linecap="round"/>
<path d="M46.1162 41.4575C46.1162 41.4575 42.7316 49.9186 39.0089 41.4575C34.9474 33.3353 31.9017 41.4575 31.9017 41.4575C31.9017 41.4575 28.5171 49.9186 24.7944 41.4575C21.0718 33.3353 17.6872 41.4575 17.6872 41.4575C17.6872 41.4575 14.6414 49.9186 10.5799 41.4575C6.85727 33.3353 3.47266 41.4575 3.47266 41.4575" stroke="white" stroke-width="0.859599" stroke-linecap="round"/>
<path d="M3.46875 41.4575C3.46875 41.4575 6.85336 49.9186 10.576 41.4575C14.6375 33.3353 17.6833 41.4575 17.6833 41.4575C17.6833 41.4575 21.0679 49.9186 24.7905 41.4575C28.852 33.3353 31.8978 41.4575 31.8978 41.4575C31.8978 41.4575 34.9435 49.9186 39.005 41.4575C42.7277 33.3353 46.1123 41.4575 46.1123 41.4575" stroke="white" stroke-width="1.7192" stroke-linecap="round"/>
<path d="M46.792 41.4575C46.792 41.4575 43.7462 49.9186 39.6847 41.4575C35.9621 33.3353 32.5774 41.4575 32.5774 41.4575C32.5774 41.4575 29.5317 49.9186 25.4702 41.4575C21.7476 33.3353 18.3629 41.4575 18.3629 41.4575C18.3629 41.4575 15.3172 49.9186 11.2557 41.4575C7.53305 33.3353 4.14844 41.4575 4.14844 41.4575" stroke="black" stroke-width="0.859599" stroke-linecap="round"/>
<path d="M4.14844 41.4575C4.14844 41.4575 7.53305 49.9186 11.2557 41.4575C15.3172 33.3353 18.3629 41.4575 18.3629 41.4575C18.3629 41.4575 21.7476 49.9186 25.4702 41.4575C29.5317 33.3353 32.5774 41.4575 32.5774 41.4575C32.5774 41.4575 35.9621 49.9186 39.6847 41.4575C43.7462 33.3353 46.792 41.4575 46.792 41.4575" stroke="black" stroke-width="1.7192" stroke-linecap="round"/>
<path d="M46.1162 41.4575C46.1162 41.4575 42.7316 49.9186 39.0089 41.4575C34.9474 33.3353 31.9017 41.4575 31.9017 41.4575C31.9017 41.4575 28.5171 49.9186 24.7944 41.4575C21.0718 33.3353 17.6872 41.4575 17.6872 41.4575C17.6872 41.4575 14.6414 49.9186 10.5799 41.4575C6.85727 33.3353 3.47266 41.4575 3.47266 41.4575" stroke="white" stroke-width="0.859599" stroke-linecap="round"/>
<path d="M3.46875 41.4575C3.46875 41.4575 6.85336 49.9186 10.576 41.4575C14.6375 33.3353 17.6833 41.4575 17.6833 41.4575C17.6833 41.4575 21.0679 49.9186 24.7905 41.4575C28.852 33.3353 31.8978 41.4575 31.8978 41.4575C31.8978 41.4575 34.9435 49.9186 39.005 41.4575C42.7277 33.3353 46.1123 41.4575 46.1123 41.4575" stroke="white" stroke-width="1.7192" stroke-linecap="round"/>
<path fill-rule="evenodd" clip-rule="evenodd" d="M31.5646 19.1118L29.1958 18.773L37.6569 16.7422L41.3795 19.4499H37.9949L33.2573 22.8353H27.165L32.2415 19.1127L31.5646 19.1118ZM26.4881 26.896H24.4573L29.1958 23.8503L29.5338 26.896H27.8419L25.4731 29.6037H23.7812L26.15 26.896H26.4881Z" fill="white"/>
</g>
</g>
<defs>
<clipPath id="clip0_622_300">
<rect width="66.23" height="66.23" fill="white"/>
</clipPath>
<clipPath id="clip1_622_300">
<rect width="66.23" height="36.9856" fill="white" transform="translate(0 14.6211)"/>
</clipPath>
</defs>
</svg>
