<svg width="67" height="67" viewBox="0 0 67 67" fill="none" xmlns="http://www.w3.org/2000/svg">
<g clip-path="url(#clip0_622_236)">
<path fill-rule="evenodd" clip-rule="evenodd" d="M49.3802 48.3278V33.6133H3.63672V48.3278H49.3802Z" fill="#126D99" stroke="white" stroke-width="0.639797" stroke-linecap="round"/>
<path fill-rule="evenodd" clip-rule="evenodd" d="M3.31641 33.6129L21.8697 18.5781H64.415L49.0598 33.6129H3.31641ZM49.3801 48.9673L64.415 32.3334V18.5781L49.3801 33.6129V48.9673Z" fill="#126D99"/>
<path d="M64.415 18.5781H21.8697L3.31641 33.6129H49.0598L64.415 18.5781ZM64.415 18.5781V32.3334L49.3801 48.9673V33.6129L64.415 18.5781Z" stroke="white" stroke-width="0.639797" stroke-linecap="round"/>
<path fill-rule="evenodd" clip-rule="evenodd" d="M30.1847 29.7766L29.2246 30.4164H18.0294L16.7498 31.696L13.5508 30.4164L19.9487 28.497L18.6692 29.7766H30.1847ZM39.1418 24.0185L38.1817 24.9778H26.9857L25.7061 25.937L22.5071 24.6575L28.9051 23.0584L27.6255 24.0177L39.1418 24.0185ZM32.1041 27.8572L33.0634 27.2175H44.5797L45.539 25.9379L48.738 27.2175L42.6603 29.1368L43.6196 27.8572H32.1041ZM38.1817 22.0991L39.1418 21.4593H50.3379L51.6175 20.1797L54.8165 21.7788L48.4185 23.3779L49.6981 22.0983L38.1817 22.0991Z" fill="white"/>
</g>
<defs>
<clipPath id="clip0_622_236">
<rect width="62.5977" height="31.7053" fill="white" transform="translate(1.81641 17.2617)"/>
</clipPath>
</defs>
</svg>
